<svg xmlns="http://www.w3.org/2000/svg" viewBox="0 0 1200 800" role="img" aria-label="Paper reveal poster">
  <rect width="1200" height="800" fill="#f3ead7"/>
  <rect x="88" y="80" width="1024" height="640" rx="30" fill="#f7f0e1" stroke="#111111" stroke-width="16"/>
  <path d="M160 180c120-96 220 42 344-18s222 56 322-2 186 30 206 126-78 164-26 260-84 126-184 104-184 46-286-10-186 16-274-24-174-118-156-248 8-118 54-188z" fill="#e6dcc6" opacity=".78"/>
  <path d="M252 278c92 68 172-34 278 26s170-22 248 18 100 108 64 172-66 88-156 92-116 54-204 24-120 16-206-18-114-118-68-196 8-74 44-118z" fill="none" stroke="#111111" stroke-opacity=".12" stroke-width="18"/>
  <text x="150" y="204" fill="#111111" font-family="Arial, sans-serif" font-size="44" font-weight="700" letter-spacing="8">PAPER REVEAL</text>
  <text x="150" y="270" fill="#111111" font-family="Arial, sans-serif" font-size="132" font-weight="900">CASE FILE</text>
  <text x="150" y="344" fill="#e23b2e" font-family="Arial, sans-serif" font-size="38" font-weight="700" letter-spacing="4">OPTIONAL LOCAL VIDEO POSTER</text>
</svg>
